<svg width="916" height="107" viewBox="0 0 916 107" xmlns="http://www.w3.org/2000/svg"><title>logo</title><desc>Created with Sketch.</desc><g id="Page-1" fill="none" fill-rule="evenodd"><g fill="#000"><g><path d="M.688 98.672c0 3.024 2.448 5.328 5.328 5.328 3.024 0 5.328-2.304 5.328-5.328V5.504c0-2.88-2.304-5.328-5.328-5.328C3.136.176.688 2.624.688 5.504v93.168zM27.704 14.72c0 4.032 3.312 7.344 7.344 7.344s7.488-3.312 7.488-7.344c0-4.176-3.456-7.488-7.488-7.488s-7.344 3.312-7.344 7.488zm2.016 83.952c0 3.024 2.448 5.328 5.328 5.328 3.024 0 5.328-2.304 5.328-5.328V41.216c0-2.88-2.304-5.328-5.328-5.328-2.88 0-5.328 2.448-5.328 5.328v57.456zm87.496 0c0 3.024 2.304 5.328 5.328 5.328 3.024 0 5.328-2.304 5.328-5.328V66.56c0-18-13.248-32.688-31.248-32.688-11.232 0-21.168 5.04-27.072 13.248v-5.904c0-2.88-2.304-5.328-5.328-5.328-2.88 0-5.328 2.448-5.328 5.328v57.456c0 3.024 2.448 5.328 5.328 5.328 3.024 0 5.328-2.304 5.328-5.328V67.568c0-11.808 10.368-23.328 24.912-23.328 12.528 0 22.752 9.36 22.752 23.328v31.104zm87.208-27.648c2.88 0 5.616-2.304 5.328-6.192-1.008-18.144-15.984-30.96-34.272-30.96-20.016 0-36.144 16.128-36.144 36.144s16.128 36.144 36.144 36.144c8.496 0 16.272-3.024 22.464-7.92 2.304-1.872 2.592-5.04.864-7.488-1.872-2.448-5.472-2.736-7.632-1.008-4.464 3.6-10.08 5.76-15.984 5.76-13.68 0-24.912-10.944-25.488-24.48h54.72zm-29.232-26.64c10.656 0 20.736 5.76 22.032 17.136h-46.08c3.456-9.936 12.96-17.136 24.048-17.136zm59.848 38.304c0 6.192-4.176 10.656-10.368 10.656h-8.928c-3.024 0-5.328 2.304-5.328 5.328 0 3.024 2.304 5.328 5.328 5.328h9.36c12.096 0 20.592-8.352 20.592-20.448V57.2c0-6.192 4.32-10.656 10.368-10.656h8.928c3.024 0 5.328-2.304 5.328-5.328 0-2.88-2.304-5.328-5.328-5.328h-9.36c-12.096 0-20.592 8.352-20.592 20.448v26.352zm97.288 15.984c0 3.024 2.448 5.328 5.328 5.328 3.024 0 5.328-2.304 5.328-5.328V41.216c0-2.88-2.304-5.328-5.328-5.328-2.88 0-5.328 2.448-5.328 5.328v6.048c-5.904-8.064-15.12-13.392-26.064-13.392-19.584 0-34.992 16.128-34.992 36.144s15.408 36.144 34.992 36.144c10.944 0 20.16-5.184 26.064-13.248v5.76zm-50.4-28.656c0-14.112 10.224-25.776 24.192-25.776 14.112 0 26.208 11.232 26.208 25.776 0 14.4-12.096 25.632-26.208 25.632-13.968 0-24.192-11.664-24.192-25.632zM419.68 98.672c0 3.024 2.304 5.328 5.328 5.328 3.024 0 5.328-2.304 5.328-5.328V66.56c0-18-13.248-32.688-31.248-32.688-11.232 0-21.168 5.04-27.072 13.248v-5.904c0-2.88-2.304-5.328-5.328-5.328-2.88 0-5.328 2.448-5.328 5.328v57.456c0 3.024 2.448 5.328 5.328 5.328 3.024 0 5.328-2.304 5.328-5.328V67.568c0-11.808 10.368-23.328 24.912-23.328 12.528 0 22.752 9.36 22.752 23.328v31.104zm83.176 0c0 3.024 2.448 5.328 5.328 5.328 3.024 0 5.328-2.304 5.328-5.328V5.504c0-2.88-2.304-5.328-5.328-5.328-2.88 0-5.328 2.448-5.328 5.328v41.76c-5.904-8.064-15.12-13.392-26.064-13.392-19.584 0-34.992 16.128-34.992 36.144s15.408 36.144 34.992 36.144c10.944 0 20.16-5.184 26.064-13.248v5.76zm-50.4-28.656c0-14.112 10.224-25.776 24.192-25.776 14.112 0 26.208 11.232 26.208 25.776 0 14.4-12.096 25.632-26.208 25.632-13.968 0-24.192-11.664-24.192-25.632zm137.032 31.824c.72 1.44 2.448 2.592 4.464 2.592 2.016 0 3.744-1.152 4.464-2.592l30.816-58.032c1.296-2.448.72-5.904-2.16-7.344-2.592-1.296-5.76-.432-7.2 2.448l-25.92 48.816-12.816-23.472 11.088-20.448c1.296-2.448.72-5.904-2.16-7.344-2.592-1.296-5.76-.432-7.2 2.448l-7.488 14.544-7.344-14.544c-1.44-2.88-4.608-3.744-7.2-2.448-2.88 1.44-3.456 4.896-2.16 7.344l11.088 20.448-12.816 23.472-25.92-48.816c-1.44-2.88-4.608-3.744-7.2-2.448-2.88 1.44-3.456 4.896-2.16 7.344l30.816 58.032c.72 1.44 2.448 2.592 4.464 2.592 2.016 0 3.744-1.152 4.464-2.592l13.968-27.072 14.112 27.072zm103.048-3.168c0 3.024 2.448 5.328 5.328 5.328 3.024 0 5.328-2.304 5.328-5.328V41.216c0-2.88-2.304-5.328-5.328-5.328-2.88 0-5.328 2.448-5.328 5.328v6.048c-5.904-8.064-15.12-13.392-26.064-13.392-19.584 0-34.992 16.128-34.992 36.144s15.408 36.144 34.992 36.144c10.944 0 20.16-5.184 26.064-13.248v5.76zm-50.4-28.656c0-14.112 10.224-25.776 24.192-25.776 14.112 0 26.208 11.232 26.208 25.776 0 14.4-12.096 25.632-26.208 25.632-13.968 0-24.192-11.664-24.192-25.632zm104.488 34.416c2.016 0 3.744-1.152 4.464-2.592l30.816-58.032c1.296-2.448.72-5.904-2.16-7.344-2.592-1.296-5.76-.432-7.2 2.448l-25.92 48.816-25.92-48.816c-1.44-2.88-4.608-3.744-7.2-2.448-2.88 1.44-3.456 4.896-2.16 7.344l30.816 58.032c.72 1.44 2.448 2.592 4.464 2.592zM849.24 71.024c2.88 0 5.616-2.304 5.328-6.192-1.008-18.144-15.984-30.96-34.272-30.96-20.016 0-36.144 16.128-36.144 36.144s16.128 36.144 36.144 36.144c8.496 0 16.272-3.024 22.464-7.92 2.304-1.872 2.592-5.04.864-7.488-1.872-2.448-5.472-2.736-7.632-1.008-4.464 3.6-10.08 5.76-15.984 5.76-13.68 0-24.912-10.944-25.488-24.48h54.72zm-29.232-26.64c10.656 0 20.736 5.76 22.032 17.136h-46.08c3.456-9.936 12.96-17.136 24.048-17.136zm59.848 38.304c0 6.192-4.176 10.656-10.368 10.656h-8.928c-3.024 0-5.328 2.304-5.328 5.328 0 3.024 2.304 5.328 5.328 5.328h9.36c12.096 0 20.592-8.352 20.592-20.448V57.2c0-6.192 4.32-10.656 10.368-10.656h8.928c3.024 0 5.328-2.304 5.328-5.328 0-2.88-2.304-5.328-5.328-5.328h-9.36c-12.096 0-20.592 8.352-20.592 20.448v26.352z"/></g></g></g></svg>