<svg xmlns="http://www.w3.org/2000/svg" width="175" height="200" viewBox="0 0 175 200"><path stroke="#449FDB" d="M0 0"/><path d="M150 75H25C11.2 75 0 86.2 0 100v12.5c0 9.23 5.048 17.2 12.5 21.533V175h50v25h50v-25h50v-40.967C169.946 129.7 175 121.74 175 112.5V100c0-13.8-11.206-25-25-25zM50 162.5H25v-50H12.5V100c0-6.897 5.603-12.5 12.5-12.5h15.96c-2.147 3.687-3.46 7.922-3.46 12.5v25c0 9.23 5.048 17.2 12.5 21.533V162.5zm62.5-25v-25H100v75H75v-75H62.5v25c-6.897 0-12.5-5.59-12.5-12.5v-25c0-6.897 5.603-12.5 12.5-12.5h50c6.91 0 12.5 5.603 12.5 12.5v25c0 6.91-5.59 12.5-12.5 12.5zm50-25H150v50h-25v-15.967c7.446-4.334 12.5-12.293 12.5-21.533v-25c0-4.578-1.318-8.813-3.467-12.5H150c6.91 0 12.5 5.603 12.5 12.5v12.5zM59.314 61.987C66.186 69.897 76.202 75 87.5 75c11.304 0 21.313-5.103 28.186-13.013C119.946 69.714 128.064 75 137.5 75c13.794 0 25-11.2 25-25s-11.206-25-25-25c-5.005 0-9.644 1.502-13.55 4.04C120.093 12.416 105.285 0 87.5 0S54.9 12.414 51.05 29.04C47.138 26.503 42.5 25 37.5 25c-13.8 0-25 11.2-25 25s11.2 25 25 25c9.436 0 17.548-5.286 21.814-13.013zM137.5 37.5c6.91 0 12.5 5.585 12.5 12.5s-5.59 12.5-12.5 12.5c-6.897 0-12.5-5.585-12.5-12.5s5.603-12.5 12.5-12.5zm-50-25c13.794 0 25 11.2 25 25s-11.206 25-25 25c-13.8 0-25-11.2-25-25s11.2-25 25-25zm-50 50C30.603 62.5 25 56.915 25 50s5.603-12.5 12.5-12.5C44.415 37.5 50 43.085 50 50s-5.585 12.5-12.5 12.5z"/></svg>