<svg xmlns="http://www.w3.org/2000/svg" width="157" height="200" viewBox="0 0 157 200"><path stroke="#449FDB" d="M0 0"/><path d="M0 85.714V28.57q0-2.9 2.12-5.02t5.023-2.122q.67 0 1.786.223 1.896-3.347 5.245-5.356t7.254-2.01q5.914 0 10.1 4.186t4.184 10.1-4.185 10.1-10.1 4.185q-3.684 0-7.144-2.01v44.867q0 11.83 10.49 20.2T50 114.285t25.223-8.37 10.49-20.202V40.846q-3.46 2.01-7.142 2.01-5.914 0-10.1-4.186t-4.184-10.1 4.185-10.1 10.1-4.185q3.907 0 7.255 2.01t5.246 5.356q1.117-.222 1.787-.222 2.902 0 5.022 2.12t2.12 5.023v57.144q0 16.07-12.277 28.125t-30.58 14.285v14.732q0 11.83 10.49 20.2t25.224 8.372 25.223-8.372 10.49-20.2V98.77q-6.36-2.344-10.323-7.813t-3.962-12.39q0-8.928 6.25-15.178t15.18-6.25 15.178 6.25 6.25 15.18q0 6.92-3.962 12.387t-10.323 7.812v44.085q0 17.746-14.676 30.3t-35.323 12.557-35.324-12.556-14.676-30.3v-14.733q-18.304-2.232-30.58-14.286T0 85.713zm128.57-7.143q0 2.903 2.122 5.023t5.022 2.12 5.022-2.12 2.12-5.022-2.12-5.02-5.022-2.122-5.022 2.12-2.12 5.023z"/></svg>